<svg xmlns="http://www.w3.org/2000/svg" version="1.1" xmlns:xlink="http://www.w3.org/1999/xlink" width="1000" height="1000"><g clip-path="url(#SvgjsClipPath1046)"><rect width="1000" height="1000" fill="#ffffff"></rect><g transform="matrix(5,0,0,5,0,0)"><svg xmlns="http://www.w3.org/2000/svg" version="1.1" xmlns:xlink="http://www.w3.org/1999/xlink" width="200" height="200"><svg version="1.1" xmlns="http://www.w3.org/2000/svg" width="200" height="200">
<path d="M0 0 C1.875 2.1875 1.875 2.1875 3 5 C2.56646134 9.29956929 1.39077009 12.8540199 -0.3359375 16.796875 C-0.81804687 17.90853027 -1.30015625 19.02018555 -1.796875 20.16552734 C-2.31765625 21.34840332 -2.8384375 22.5312793 -3.375 23.75 C-4.19017811 25.61888 -5.00319016 27.48869187 -5.815979 29.35861206 C-6.3736074 30.64127185 -6.93200512 31.92359744 -7.4911499 33.20559692 C-9.40123346 37.59243368 -11.26356765 41.99650849 -13.1015625 46.4140625 C-13.58963379 47.58485352 -14.07770508 48.75564453 -14.58056641 49.96191406 C-15.50658955 52.18857445 -16.42834317 54.41701666 -17.34521484 56.64746094 C-22.97172539 70.1158803 -22.97172539 70.1158803 -27.4375 72.0625 C-30.87183194 71.97873581 -32.28043259 71.10109881 -35 69 C-36.13897453 66.57195353 -36.95110779 64.47913928 -37.6875 61.9375 C-37.89463623 61.27226318 -38.10177246 60.60702637 -38.31518555 59.92163086 C-39.90522564 54.68656441 -41.14762798 49.40683745 -42 44 C-43.57587891 43.61908203 -43.57587891 43.61908203 -45.18359375 43.23046875 C-49.46441958 42.18689956 -53.73406407 41.10271608 -58 40 C-59.46566406 39.62488281 -59.46566406 39.62488281 -60.9609375 39.2421875 C-64.62583004 38.18289962 -66.53980741 37.5143329 -69.125 34.625 C-70.15789577 31.5263127 -70.12515192 30.05398377 -69 27 C-66.51594296 23.86420853 -63.48702253 22.7476808 -59.83984375 21.25 C-59.22587738 20.99522888 -58.61191101 20.74045776 -57.9793396 20.47796631 C-55.96816488 19.64507624 -53.95292686 18.82254072 -51.9375 18 C-50.54484217 17.42558922 -49.15251098 16.85038591 -47.76049805 16.27441406 C-45.62590181 15.39129826 -43.49109468 14.50873922 -41.3551178 13.62896729 C-36.65882074 11.6936175 -31.97652279 9.72801541 -27.3046875 7.734375 C-26.12269775 7.23035156 -24.94070801 6.72632812 -23.72290039 6.20703125 C-21.48962939 5.25290702 -19.25701829 4.29723637 -17.02514648 3.33984375 C-16.02298096 2.91316406 -15.02081543 2.48648438 -13.98828125 2.046875 C-12.68177612 1.48758301 -12.68177612 1.48758301 -11.34887695 0.91699219 C-7.23994289 -0.68711927 -4.27445395 -1.53441937 0 0 Z M-6.85467529 5.5606842 C-7.60742737 5.88234055 -8.36017944 6.20399689 -9.13574219 6.53540039 C-9.99133728 6.89650406 -10.84693237 7.25760773 -11.72845459 7.62965393 C-12.65853333 8.0315947 -13.58861206 8.43353546 -14.546875 8.84765625 C-15.5096637 9.25656601 -16.47245239 9.66547577 -17.4644165 10.08677673 C-20.5627741 11.40473412 -23.65637862 12.73346872 -26.75 14.0625 C-28.7900621 14.93235037 -30.83042345 15.80149929 -32.87109375 16.66992188 C-38.58478997 19.10384818 -44.2928823 21.55069756 -50 24 C-51.52532839 24.65362833 -53.05071383 25.30712353 -54.57617188 25.96044922 C-57.71784948 27.30603074 -60.85910779 28.65258593 -64 30 C-64 30.66 -64 31.32 -64 32 C-63.32420898 32.19634033 -62.64841797 32.39268066 -61.95214844 32.5949707 C-58.88216683 33.49218364 -55.81612169 34.40218788 -52.75 35.3125 C-51.68652344 35.62123047 -50.62304688 35.92996094 -49.52734375 36.24804688 C-48.50253906 36.55419922 -47.47773437 36.86035156 -46.421875 37.17578125 C-45.00793457 37.59210815 -45.00793457 37.59210815 -43.56542969 38.0168457 C-40.8450263 39.05939085 -39.08963733 39.96764439 -37 42 C-35.90332031 44.54370117 -35.90332031 44.54370117 -35.078125 47.54296875 C-34.77519531 48.61611328 -34.47226563 49.68925781 -34.16015625 50.79492188 C-33.85980469 51.91447266 -33.55945313 53.03402344 -33.25 54.1875 C-32.93417969 55.31865234 -32.61835937 56.44980469 -32.29296875 57.61523438 C-31.51556408 60.40682388 -30.75186061 63.20144296 -30 66 C-29.34 66 -28.68 66 -28 66 C-25.72250117 60.6708389 -23.44810825 55.34036555 -21.17626953 50.00878906 C-20.40721172 48.20506278 -19.63738684 46.40166332 -18.86669922 44.59863281 C-13.39758881 31.80162936 -8.11444549 18.94289168 -3 6 C-4.93210294 4.74773834 -4.93210294 4.74773834 -6.85467529 5.5606842 Z " fill="#000000" transform="translate(133,65)"></path>
</svg></svg></g></g><defs><clipPath id="SvgjsClipPath1046"><rect width="1000" height="1000" x="0" y="0" rx="350" ry="350"></rect></clipPath></defs></svg>